<svg xmlns="http://www.w3.org/2000/svg" xmlns:xlink="http://www.w3.org/1999/xlink" id="Capa_1" x="0" y="0" baseProfile="tiny" version="1.2" viewBox="0 0 64 64" xml:space="preserve"><g><path fill="#010002" d="M39,49.4c0.3-0.3,0.4-0.5,0.4-0.8c0-0.3-0.1-0.6-0.3-0.8l-1.6-1.7L20.9,29.4c-0.2-0.2-0.5-0.3-0.8-0.3 c-0.3,0-0.6,0.2-0.8,0.4L2.7,46.1l-1.6,1.7c-0.2,0.2-0.3,0.5-0.3,0.8c0,0.3,0.2,0.6,0.4,0.8"/><path fill="#010002" d="M62.7,49.4c0.3-0.4,0.5-0.9,0.5-1.4c0-0.5-0.1-1-0.4-1.4l-2-2.8L40.5,15.4c-0.3-0.4-0.6-0.6-1-0.5 c-0.4,0-0.7,0.3-1,0.7L18.3,43.8l-2,2.8C16,47,15.9,47.4,15.9,48c0,0.5,0.2,1,0.5,1.4"/><circle cx="9.4" cy="22" r="7.3" fill="#010002"/></g></svg>