<svg xmlns="http://www.w3.org/2000/svg" xmlns:xlink="http://www.w3.org/1999/xlink" width="64" height="64" x="0" y="0" version="1.1" viewBox="0 0 64 64" xml:space="preserve" style="enable-background:new 0 0 64 64"><g id="add"><path style="fill:#0d060e" d="M61.091,28.727H36V2.909C36,1.303,34.697,0,33.091,0c-1.607,0-2.909,1.303-2.909,2.909v25.818H2.909 C1.303,28.727,0,30.03,0,31.636c0,1.607,1.303,2.909,2.909,2.909h27.273v26.545c0,1.607,1.303,2.909,2.909,2.909 C34.697,64,36,62.697,36,61.091V34.545h25.091c1.607,0,2.909-1.303,2.909-2.909C64,30.03,62.697,28.727,61.091,28.727z"/></g></svg>