<svg xmlns="http://www.w3.org/2000/svg" xmlns:xlink="http://www.w3.org/1999/xlink" width="64" height="64" x="0" y="0" version="1.1" viewBox="0 0 64 64" xml:space="preserve" style="enable-background:new 0 0 64 64"><g id="align-justified"><g><path style="fill:#0d060e" d="M4,8h56c2.209,0,4-1.791,4-4c0-2.209-1.791-4-4-4H4C1.791,0,0,1.791,0,4C0,6.209,1.791,8,4,8z"/><path style="fill:#0d060e" d="M60,18.667H4c-2.209,0-4,1.791-4,4c0,2.209,1.791,4,4,4h56c2.209,0,4-1.791,4-4 C64,20.457,62.209,18.667,60,18.667z"/><path style="fill:#0d060e" d="M60,37.333H4c-2.209,0-4,1.791-4,4c0,2.209,1.791,4,4,4h56c2.209,0,4-1.791,4-4 C64,39.124,62.209,37.333,60,37.333z"/><path style="fill:#0d060e" d="M60,56H4c-2.209,0-4,1.791-4,4c0,2.209,1.791,4,4,4h56c2.209,0,4-1.791,4-4 C64,57.791,62.209,56,60,56z"/></g></g></svg>