<svg xmlns="http://www.w3.org/2000/svg" xmlns:xlink="http://www.w3.org/1999/xlink" width="64" height="64" x="0" y="0" version="1.1" viewBox="0 0 64 64" xml:space="preserve" style="enable-background:new 0 0 64 64"><g id="align-center"><g><path style="fill:#0d060e" d="M11.5,8h41c2.209,0,4-1.791,4-4s-1.791-4-4-4h-41c-2.209,0-4,1.791-4,4S9.291,8,11.5,8z"/><path style="fill:#0d060e" d="M4,26.667h56c2.209,0,4-1.791,4-4s-1.791-4-4-4H4c-2.209,0-4,1.791-4,4S1.791,26.667,4,26.667z"/><path style="fill:#0d060e" d="M11.5,37.333c-2.209,0-4,1.791-4,4s1.791,4,4,4h41c2.209,0,4-1.791,4-4s-1.791-4-4-4H11.5z"/><path style="fill:#0d060e" d="M60,56H4c-2.209,0-4,1.791-4,4s1.791,4,4,4h56c2.209,0,4-1.791,4-4S62.209,56,60,56z"/></g></g></svg>