<svg xmlns="http://www.w3.org/2000/svg" xmlns:xlink="http://www.w3.org/1999/xlink" width="64" height="64" x="0" y="0" version="1.1" viewBox="0 0 64 64" xml:space="preserve" style="enable-background:new 0 0 64 64"><g id="align-left"><g><path style="fill:#0d060e" d="M4,8h40c2.209,0,4-1.791,4-4c0-2.209-1.791-4-4-4H4C1.791,0,0,1.791,0,4C0,6.209,1.791,8,4,8z"/><path style="fill:#0d060e" d="M4,26.667h56c2.209,0,4-1.791,4-4c0-2.209-1.791-4-4-4H4c-2.209,0-4,1.791-4,4 C0,24.876,1.791,26.667,4,26.667z"/><path style="fill:#0d060e" d="M4,45.333h40c2.209,0,4-1.791,4-4c0-2.209-1.791-4-4-4H4c-2.209,0-4,1.791-4,4 C0,43.542,1.791,45.333,4,45.333z"/><path style="fill:#0d060e" d="M60,56H4c-2.209,0-4,1.791-4,4c0,2.209,1.791,4,4,4h56c2.209,0,4-1.791,4-4 C64,57.791,62.209,56,60,56z"/></g></g></svg>