<svg xmlns="http://www.w3.org/2000/svg" xmlns:xlink="http://www.w3.org/1999/xlink" width="64" height="64" x="0" y="0" version="1.1" viewBox="0 0 64 64" xml:space="preserve" style="enable-background:new 0 0 64 64"><g id="removeformat"><g><g><polygon style="fill:#0d060e" points=".865 8.303 14.703 8.303 6.974 44.281 15.799 44.281 23.006 8.303 36.843 8.303 36.843 0 .865 0"/><rect style="fill:#0d060e" width="35.978" height="5.535" x=".865" y="49.816"/><path style="fill:#0d060e" d="M55.978,52.93l6.346-6.346c1.081-1.081,1.081-2.832,0-3.914s-2.832-1.081-3.914,0l-6.346,6.346 l-6.346-6.346c-1.081-1.081-2.832-1.081-3.914,0s-1.081,2.832,0,3.914l6.346,6.346l-6.346,6.346 c-1.081,1.081-1.081,2.832,0,3.914C42.346,63.73,43.054,64,43.762,64s1.416-0.27,1.957-0.811l6.346-6.346l6.346,6.346 C58.951,63.73,59.659,64,60.367,64c0.708,0,1.416-0.27,1.957-0.811c1.081-1.081,1.081-2.832,0-3.914L55.978,52.93z"/></g></g></g></svg>